# xmcd
#
# Track frame offsets:
#	150
#	13355
#	26223
#	47175
#	58802
#	76388
#	87767
#	99735
#	112331
#	124609
#	137513
#	165178
#	184594
#	197312
#	209540
#	222422
#	242274
#	259913
#	271108
#	284875
#	296322
#
# Disc length: 4110 seconds
#
# Revision: 0
# Processed by: cddbd v1.4b42PL1 Copyright (c) Steve Scherf et al.
# Submitted via: audiograbber 1.80.04
#
DISCID=38100c15
DTITLE=Various Artist - A Little Blue In Your Soul (Disk 2-2)
DYEAR=1900
DGENRE=
TTITLE0=Ike and Tina Turner - Nutbush City Limits
TTITLE1=Booker T and The MG's - Green Onions
TTITLE2=Gladys Knight - Midnight Train To Georgia
TTITLE3=Wilson Pickett - In The Midnight Hour
TTITLE4=Muddy Waters - Mannish Boy
TTITLE5=Erma Franklin - (Take A Little) Piece Of My Heart
TTITLE6=The Drifters - Under The Boardwalk
TTITLE7=Bob and Earl - Harlem Shuffle
TTITLE8=Smokey Robinson - Going To A Go-Go
TTITLE9=Jackie  Wilson - (Your Love Keeps Lifting Me) Higher and Higher
TTITLE10=Jimmy Smith - Got My Mojo Workin'
TTITLE11=Little Milton - Stormy Monday
TTITLE12=Fontella Bass - Rescue Me
TTITLE13=Albert King - Born Under A Bad Sign
TTITLE14=Carla Thomas - B-A-B-Y
TTITLE15=The Staple Singers - I'll Take You There
TTITLE16=Nina Simone - Blues For Mama
TTITLE17=Rufus Thomas - Walkin' The Dog
TTITLE18=Howlin Wolf - Smokestack Lightnin'
TTITLE19=Etta James - I'd Rather Go Blind
TTITLE20=Otis Redding - (Sittin' On) The Dock Of The Bay
EXTD=Various Artists
EXTT0=
EXTT1=
EXTT2=
EXTT3=
EXTT4=
EXTT5=
EXTT6=
EXTT7=
EXTT8=
EXTT9=
EXTT10=
EXTT11=
EXTT12=
EXTT13=
EXTT14=
EXTT15=
EXTT16=
EXTT17=
EXTT18=
EXTT19=
EXTT20=
PLAYORDER=
